name GIL12_slow4.mot
datacolumns 153
datarows 4
range 0.95000005 0.97500002
endheader

                time	           pelvis_tx	           pelvis_ty	           pelvis_tz	         pelvis_tilt	         pelvis_list	     pelvis_rotation	       hip_flexion_r	     hip_adduction_r	      hip_rotation_r	        knee_angle_r	       ankle_angle_r	    subtalar_angle_r	         mtp_angle_r	       hip_flexion_l	     hip_adduction_l	      hip_rotation_l	        knee_angle_l	       ankle_angle_l	    subtalar_angle_l	         mtp_angle_l	    lumbar_extension	      lumbar_bending	     lumbar_rotation	     ground_force_vx	     ground_force_vy	     ground_force_vz	     ground_force_px	     ground_force_py	     ground_force_pz	     ground_force_vx	     ground_force_vy	     ground_force_vz	     ground_force_px	     ground_force_py	     ground_force_pz	     ground_torque_x	     ground_torque_y	     ground_torque_z	     ground_torque_x	     ground_torque_y	     ground_torque_z	    ground_marker_px	    ground_marker_py	    ground_marker_pz	    ground_marker_px	    ground_marker_py	    ground_marker_pz	    ground_marker_px	    ground_marker_py	    ground_marker_pz	    ground_marker_px	    ground_marker_py	    ground_marker_pz	    ground_marker_px	    ground_marker_py	    ground_marker_pz	    ground_marker_px	    ground_marker_py	    ground_marker_pz	    ground_marker_px	    ground_marker_py	    ground_marker_pz	    ground_marker_px	    ground_marker_py	    ground_marker_pz	    ground_marker_px	    ground_marker_py	    ground_marker_pz	    ground_marker_px	    ground_marker_py	    ground_marker_pz	    ground_marker_px	    ground_marker_py	    ground_marker_pz	    ground_marker_px	    ground_marker_py	    ground_marker_pz	    ground_marker_px	    ground_marker_py	    ground_marker_pz	    ground_marker_px	    ground_marker_py	    ground_marker_pz	    ground_marker_px	    ground_marker_py	    ground_marker_pz	    ground_marker_px	    ground_marker_py	    ground_marker_pz	    ground_marker_px	    ground_marker_py	    ground_marker_pz	    ground_marker_px	    ground_marker_py	    ground_marker_pz	    ground_marker_px	    ground_marker_py	    ground_marker_pz	    ground_marker_px	    ground_marker_py	    ground_marker_pz	    ground_marker_px	    ground_marker_py	    ground_marker_pz	    ground_marker_px	    ground_marker_py	    ground_marker_pz	    ground_marker_px	    ground_marker_py	    ground_marker_pz	    ground_marker_px	    ground_marker_py	    ground_marker_pz	    ground_marker_px	    ground_marker_py	    ground_marker_pz	    ground_marker_px	    ground_marker_py	    ground_marker_pz	    ground_marker_px	    ground_marker_py	    ground_marker_pz	    ground_marker_px	    ground_marker_py	    ground_marker_pz	    ground_marker_px	    ground_marker_py	    ground_marker_pz	    ground_marker_px	    ground_marker_py	    ground_marker_pz	    ground_marker_px	    ground_marker_py	    ground_marker_pz	    ground_marker_px	    ground_marker_py	    ground_marker_pz	    ground_marker_px	    ground_marker_py	    ground_marker_pz	    ground_marker_px	    ground_marker_py	    ground_marker_pz	    ground_marker_px	    ground_marker_py	    ground_marker_pz	    ground_marker_px	    ground_marker_py	    ground_marker_pz	    ground_marker_px	    ground_marker_py	    ground_marker_pz	
          0.95000005	         -1.10057557	          0.68013519	          0.24804996	          5.17213297	          3.41759920	         -2.72063780	        -20.24825859	         -1.54382885	        -13.45558357	        -20.90099716	         15.14105988	          0.00000000	          0.00000000	         16.69257736	          7.27461767	         -2.57942581	        -10.43908215	        -11.39787292	          0.00000000	          0.00000000	        -27.64807892	         -8.25191021	          9.37890339	         20.48728501	         96.48104713	          2.97018895	         -1.32392383	          0.00000000	          0.26707663	        -32.49097769	        186.27094064	          8.45117281	         -0.98428320	          0.00000000	          0.21190085	          0.00000000	          0.42017209	          0.00000000	          0.00000000	         -0.13214136	          0.00000000	         -1.14887190	          0.60538614	          0.24238592	         -1.14745343	          0.61488128	          0.30089489	         -1.14108682	          0.62116230	          0.18379094	         -1.22576201	          0.32554287	          0.28922388	         -1.03147769	          0.34048131	          0.21314278	         -1.40621853	          0.08390735	          0.27746895	         -0.97631598	          0.05739150	          0.21882227	         -1.10057557	          0.68013519	          0.24804996	         -1.10551691	          0.67526025	          0.33893901	         -1.09563422	          0.68501014	          0.15716091	         -1.23825479	          0.69872499	          0.27981439	         -1.23277318	          0.69481790	          0.20034996	         -1.23819363	          0.32712212	          0.33348405	         -1.02864289	          0.33659407	          0.16538450	         -1.22029066	          0.32783490	          0.24338682	         -1.03548062	          0.34051946	          0.25482133	         -1.41127229	          0.08607405	          0.31051460	         -0.98406899	          0.05524903	          0.18733338	         -1.40443981	          0.09505633	          0.24956693	         -0.97710258	          0.05654145	          0.25243384	         -1.15328777	          1.01348209	          0.24670197	         -1.06853747	          0.93306166	          0.27924562	         -1.08217061	          0.93151635	          0.19000146	         -1.08657205	          0.94784749	          0.24387366	         -1.06732810	          0.80703527	          0.23817152	         -1.08564842	          0.37771940	          0.30124992	         -0.99299890	          0.42955256	          0.10751001	         -1.14406908	          0.44902590	          0.33020344	         -1.02633178	          0.48560226	          0.18084179	         -1.18223214	          0.37029749	          0.32472619	         -1.00094426	          0.40909135	          0.20572858	         -1.34385693	          0.13715000	          0.38067785	         -0.90677363	          0.18307501	          0.24400537	         -1.31771362	          0.20202820	          0.32429984	         -0.97462434	          0.22438088	          0.21825434	         -1.33500350	          0.04316864	          0.26953882	         -0.88922238	          0.04052455	          0.22118968	
          0.95833337	         -1.09408569	          0.68126929	          0.24746217	          4.89425802	          3.51679087	         -2.74635625	        -19.87497902	         -1.91213918	        -13.48498440	        -21.74487686	         13.70186901	          0.00000000	          0.00000000	         16.49635315	          7.35024261	         -3.29710245	        -10.59557819	        -10.94397068	          0.00000000	          0.00000000	        -27.05146027	         -8.35223293	          9.54481602	         17.82954044	         81.94116894	          2.88981514	         -1.32219263	          0.00000000	          0.26612521	        -32.83482101	        192.36522793	          9.59817250	         -0.98201831	          0.00000000	          0.21163545	          0.00000000	          0.40445300	          0.00000000	          0.00000000	         -0.11012073	          0.00000000	         -1.14276624	          0.60680968	          0.24172473	         -1.14131606	          0.61615705	          0.30016783	         -1.13484180	          0.62260157	          0.18307868	         -1.21932375	          0.32633036	          0.28995359	         -1.02761102	          0.34097496	          0.21235950	         -1.40312874	          0.08682040	          0.27876046	         -0.97586638	          0.05717796	          0.21858396	         -1.09408569	          0.68126929	          0.24746217	         -1.09910619	          0.67627192	          0.33825845	         -1.08906531	          0.68626666	          0.15666589	         -1.23165929	          0.70047110	          0.27915388	         -1.22618032	          0.69667637	          0.19974330	         -1.23174953	          0.32811517	          0.33420756	         -1.02532470	          0.33687878	          0.16458929	         -1.21340108	          0.32820374	          0.24389057	         -1.03191078	          0.34088695	          0.25365382	         -1.40827107	          0.08922382	          0.31177610	         -0.98364848	          0.05506853	          0.18709999	         -1.40093052	          0.09840528	          0.25108883	         -0.97675854	          0.05660622	          0.25219110	         -1.14757991	          1.01519477	          0.24605882	         -1.06238472	          0.93529296	          0.27839944	         -1.07621205	          0.93372440	          0.18909445	         -1.08054018	          0.94992453	          0.24305333	         -1.06057537	          0.80929893	          0.23720159	         -1.07900679	          0.37867713	          0.30171189	         -0.98940563	          0.42907542	          0.10608451	         -1.13790786	          0.44995040	          0.33056569	         -1.02117038	          0.48566678	          0.17938781	         -1.17564487	          0.37101012	          0.32519063	         -0.99681222	          0.40885139	          0.20405628	         -1.34017670	          0.14004672	          0.38208401	         -0.90497905	          0.18218002	          0.24346943	         -1.31289065	          0.20440565	          0.32548794	         -0.97246403	          0.22417773	          0.21743470	         -1.33360469	          0.04344727	          0.27028742	         -0.88883758	          0.03992486	          0.22094405	
          0.96666670	         -1.08763909	          0.68246651	          0.24690194	          4.63758993	          3.61967587	         -2.80205631	        -19.43494606	         -2.32746196	        -13.56710052	        -22.69751549	         12.13151455	          0.00000000	          0.00000000	         16.20474243	          7.43162489	         -3.93092990	        -10.61680317	        -10.49213409	          0.00000000	          0.00000000	        -26.43118286	         -8.40351200	          9.64935398	         14.83974450	         68.19971939	          2.62703103	         -1.32042493	          0.00000000	          0.26517419	        -31.47260329	        196.27074082	          9.81524908	         -0.98062384	          0.00000000	          0.21146597	          0.00000000	          0.36750217	          0.00000000	          0.00000000	         -0.04982141	          0.00000000	         -1.13669038	          0.60829121	          0.24104777	         -1.13522720	          0.61748219	          0.29944333	         -1.12858415	          0.62409121	          0.18237279	         -1.21250403	          0.32705513	          0.29091150	         -1.02414036	          0.34142941	          0.21162687	         -1.39971876	          0.08979510	          0.28020576	         -0.97549611	          0.05702140	          0.21838188	         -1.08763909	          0.68246651	          0.24690194	         -1.09278488	          0.67734706	          0.33758715	         -1.08249319	          0.68758601	          0.15621674	         -1.22511029	          0.70220941	          0.27846438	         -1.21964097	          0.69857991	          0.19907314	         -1.22498465	          0.32907668	          0.33513987	         -1.02232420	          0.33715600	          0.16385201	         -1.20616329	          0.32828334	          0.24480450	         -1.02861404	          0.34141409	          0.25279373	         -1.40496814	          0.09244911	          0.31318530	         -0.98333400	          0.05493335	          0.18691036	         -1.39717245	          0.10188209	          0.25276518	         -0.97671467	          0.05662404	          0.25204250	         -1.14194298	          1.01689339	          0.24538141	         -1.05629337	          0.93756205	          0.27756342	         -1.07013750	          0.93598908	          0.18822198	         -1.07454121	          0.95205861	          0.24224915	         -1.05368829	          0.81162113	          0.23622605	         -1.07208169	          0.37969390	          0.30252376	         -0.98593259	          0.42860571	          0.10482331	         -1.13153553	          0.45091629	          0.33109993	         -1.01633048	          0.48595235	          0.17823198	         -1.16882777	          0.37159044	          0.32598132	         -0.99291956	          0.40873882	          0.20279346	         -1.33622921	          0.14299965	          0.38366300	         -0.90338463	          0.18137440	          0.24289005	         -1.30772209	          0.20679526	          0.32690260	         -0.97071701	          0.22398274	          0.21676339	         -1.33213794	          0.04370984	          0.27110359	         -0.88855201	          0.03949423	          0.22079514	
          0.97500002	         -1.08125949	          0.68370056	          0.24634707	          4.40246677	          3.72677684	         -2.87480545	        -18.92860222	         -2.79054403	        -13.70323563	        -23.75852966	         10.44094181	          0.00000000	          0.00000000	         15.82496834	          7.53372240	         -4.41192055	        -10.51329803	        -10.06368160	          0.00000000	          0.00000000	        -25.85982323	         -8.47074986	          9.78243160	         11.90155194	         55.12462393	          2.21168234	         -1.31867041	          0.00000000	          0.26426419	        -29.29258360	        198.49894093	          9.66860949	         -0.97982782	          0.00000000	          0.21136636	          0.00000000	          0.30841443	          0.00000000	          0.00000000	          0.00874707	          0.00000000	         -1.13060975	          0.60979050	          0.24033490	         -1.12919796	          0.61882752	          0.29870719	         -1.12235141	          0.62560594	          0.18165807	         -1.20531404	          0.32769215	          0.29209831	         -1.02106369	          0.34184054	          0.21097377	         -1.39598250	          0.09280718	          0.28178573	         -0.97519428	          0.05691151	          0.21822484	         -1.08125949	          0.68370056	          0.24634707	         -1.08655703	          0.67845577	          0.33691311	         -1.07596207	          0.68894529	          0.15578105	         -1.21865439	          0.70391327	          0.27785838	         -1.21318805	          0.70049250	          0.19838434	         -1.21790254	          0.32998034	          0.33628309	         -1.01959062	          0.33743080	          0.16319947	         -1.19904065	          0.32848832	          0.24598019	         -1.02590609	          0.34195292	          0.25200659	         -1.40136111	          0.09572715	          0.31472197	         -0.98311090	          0.05483663	          0.18677212	         -1.39312685	          0.10534499	          0.25455114	         -0.97676575	          0.05662822	          0.25194243	         -1.13629425	          1.01860547	          0.24468195	         -1.05006278	          0.93986821	          0.27680469	         -1.06395352	          0.93829530	          0.18740909	         -1.06859756	          0.95420706	          0.24146098	         -1.04658306	          0.81399512	          0.23529421	         -1.06486809	          0.38075837	          0.30366278	         -0.98248768	          0.42818266	          0.10379155	         -1.12479186	          0.45182756	          0.33171606	         -1.01232314	          0.48630258	          0.17710976	         -1.16202009	          0.37229005	          0.32698333	         -0.98959285	          0.40873060	          0.20184697	         -1.33202422	          0.14599028	          0.38540271	         -0.90196514	          0.18064755	          0.24230301	         -1.30222189	          0.20915110	          0.32848218	         -0.96926165	          0.22390412	          0.21621028	         -1.33058715	          0.04396653	          0.27199340	         -0.88835049	          0.03919081	          0.22075900	
